# AST/ASF file generated using VICON BodyLanguage
# -----------------------------------------------
:version 1.10
:name VICON
:units
  mass 1.0
  length 0.45
  angle deg
:documentation
   .ast/.asf automatically generated from VICON data using
   VICON BodyBuilder and BodyLanguage model FoxedUp or BRILLIANT.MOD
:root
   order TX TY TZ RX RY RZ
   axis XYZ
   position 0 0 0  
   orientation 0 0 0 
:bonedata
  begin
     id 1 
     name lhipjoint
     direction 0.561145 -0.797705 0.220866 
     length 2.46425 
     axis 0 0 0  XYZ
  end
  begin
     id 2 
     name lfemur
     direction 0.34202 -0.939693 0  
     length 7.95556  
     axis 0 0 20  XYZ
    dof rx ry rz
    limits (-160.0 20.0)
           (-70.0 70.0)
           (-60.0 70.0)
  end
  begin
     id 3 
     name ltibia
     direction 0.34202 -0.939693 0   
     length 7.9832   
     axis 0 0 20   XYZ
    dof rx
    limits (-10.0 170.0)
  end
  begin
     id 4 
     name lfoot
     direction 0.0723927 -0.198897 0.977343   
     length 2.23085   
     axis -90 7.62852e-016 20   XYZ
    dof rx rz
    limits (-45.0 90.0)
           (-70.0 20.0)
  end
  begin
     id 5 
     name ltoes
     direction 1.53826e-011 -4.21988e-011 1   
     length 1.12127   
     axis -90 7.62852e-016 20   XYZ
    dof rx
    limits (-90.0 20.0)
  end
  begin
     id 6 
     name rhipjoint
     direction -0.610499 -0.763299 0.21134   
     length 2.57533  
     axis 0 0 0  XYZ 
  end
  begin
     id 7 
     name rfemur
     direction -0.34202 -0.939693 0   
     length 8.65257   
     axis 0 0 -20   XYZ
    dof rx ry rz
    limits (-160.0 20.0)
           (-70.0 70.0)
           (-70.0 60.0)
  end
  begin
     id 8 
     name rtibia
     direction -0.342021 -0.939692 0   
     length 7.37807   
     axis 0 0 -20   XYZ
    dof rx
    limits (-10.0 170.0)
 end
 begin
     id 9 
     name rfoot
     direction -0.0239304 -0.0543852 0.998233   
     length 1.87018  
     axis -90 -7.62852e-016 -20   XYZ
    dof rx rz
    limits (-45.0 90.0)
           (-20.0 70.0)
  end
  begin
     id 10 
     name rtoes
     direction -1.53584e-011 -4.2242e-011 1   
     length 0.951568   
     axis -90 -7.62852e-016 -20   XYZ
    dof rx
    limits (-90.0 20.0)
  end
  begin
     id 11 
     name lowerback
     direction 0.00322089 0.999033 0.0438587   
     length 2.07568   
     axis 0 0 0   XYZ
    dof rx ry rz
    limits (-20.0 45.0)
           (-30.0 30.0)
           (-30.0 30.0)
  end
  begin
     id 12 
     name upperback
     direction -0.00321932 0.999732 -0.0229403   
     length 2.06253   
     axis 0 0 0   XYZ
    dof rx ry rz
    limits (-20.0 45.0)
           (-30.0 30.0)
           (-30.0 30.0)
  end
  begin
     id 13 
     name thorax
     direction -0.00537537 0.998955 -0.0453918   
     length 2.06975   
     axis 0 0 0   XYZ
    dof rx ry rz
    limits (-20.0 45.0)
           (-30.0 30.0)
           (-30.0 30.0)
  end
  begin
     id 14 
     name lowerneck
     direction -0.00013604 0.994111 0.108363   
     length 1.50836   
     axis 0 0 0   XYZ
    dof rx ry rz
    limits (-20.0 45.0)
           (-30.0 30.0)
           (-30.0 30.0)
  end
  begin
     id 15 
     name upperneck
     direction 0.0397262 0.983859 -0.174482   
     length 1.53037   
     axis 0 0 0   XYZ
    dof rx ry rz
    limits (-20.0 45.0)
           (-30.0 30.0)
           (-30.0 30.0)
  end
  begin
     id 16
     name head
     direction 0.0109991 0.997082 -0.0755378  
     length 1.56928  
     axis 0 0 0   XYZ
    dof rx ry rz
    limits (-20.0 45.0)
           (-30.0 30.0)
           (-30.0 30.0)
  end
  begin
     id 17 
     name lclavicle
     direction 0.964749 0.254 -0.068874  
     length 3.26503  
     axis 0 0 0   XYZ
    dof ry rz
    limits (-20.0 10.0)
           (0.0 20.0)
  end
  begin
     id 18 
     name lhumerus
     direction 1 -4.48941e-011 -2.05079e-027   
     length 5.68236   
     axis 180 -30 -90   XYZ
    dof rx ry rz
    limits (-60.0 90.0)
           (-90.0 90.0)
           (-90.0 90.0)
  end
  begin
     id 19
     name lradius
     direction 1 -4.48956e-011 6.2882e-027   
     length 3.17112   
     axis 180 -30 -90   XYZ
    dof rx
    limits (-10.0 170.0)
  end
  begin
     id 20
     name lwrist
     direction 1 -4.49014e-011 1.73219e-026   
     length 1.58556   
     axis -1.04724e-014 90 90   XYZ
    dof ry
    limits (-180.0 0.0)
 end
  begin
     id 21 
     name lhand
     direction 1 -4.49312e-011 3.46438e-026   
     length 0.632691   
     axis -2.21057e-014 90 90   XYZ
    dof rx rz
    limits (-90.0 90.0)
           (-45.0 45.0)
  end
  begin
     id 22 
     name lfingers
     direction 1 -4.48894e-011 6.92876e-026   
     length 0.510091   
     axis -4.42114e-014 90 90   XYZ
    dof rx
    limits (0.0 90.0)
  end
  begin
     id 23
     name lthumb
     direction 0.707107 -6.34705e-011 0.707107   
     length 0.732392   
     axis -90 45 2.85299e-015   XYZ
    dof rx rz
    limits (-45.0 45.0)
           (-45.0 45.0)
  end
  begin
     id 24 
     name rclavicle
     direction -0.954374 0.280496 -0.102435   
     length 3.25419  
     axis 0 0 0   XYZ 
    dof ry rz
    limits (-10.0 20.0)
           (-20.0 0.0)
  end
  begin
     id 25 
     name rhumerus
     direction -1 -4.48994e-011 -1.07204e-017  
     length 5.8712   
     axis 180 30 90   XYZ
    dof rx ry rz
    limits (-90.0 60.0)
           (-90.0 90.0)
           (-90.0 90.0)
  end
  begin
     id 26 
     name rradius
     direction -1 -4.48972e-011 5.89292e-027   
     length 3.37589   
     axis 180 30 90   XYZ
    dof rx
    limits (-10.0 170.0)
  end
  begin
     id 27 
     name rwrist
     direction -1 -4.48942e-011 1.73219e-026   
     length 1.68794   
     axis -1.04724e-014 -90 -90   XYZ
    dof ry
    limits (-180.0 0.0)
  end
  begin
     id 28
     name rhand
     direction -1 -4.48514e-011 3.46438e-026   
     length 0.603257   
     axis -2.21057e-014 -90 -90   XYZ
    dof rx rz
    limits (-90.0 90.0)
           (-45.0 45.0)
  end
  begin
     id 29
     name rfingers
     direction -1 -4.50028e-011 6.92876e-026   
     length 0.486362   
     axis -4.42114e-014 -90 -90   XYZ
    dof rx
    limits (0.0 90.0)
  end
  begin
     id 30
     name rthumb
     direction -0.707107 -6.34926e-011 0.707107   
     length 0.698321   
     axis -90 -45 -2.85299e-015   XYZ
    dof rx rz
    limits (-45.0 45.0)
           (-45.0 45.0)
  end
:hierarchy
  begin
    root lhipjoint rhipjoint lowerback
    lhipjoint lfemur
    lfemur ltibia
    ltibia lfoot
    lfoot ltoes
    rhipjoint rfemur
    rfemur rtibia
    rtibia rfoot
    rfoot rtoes
    lowerback upperback
    upperback thorax
    thorax lowerneck lclavicle rclavicle
    lowerneck upperneck
    upperneck head
    lclavicle lhumerus
    lhumerus lradius
    lradius lwrist
    lwrist lhand lthumb
    lhand lfingers
    rclavicle rhumerus
    rhumerus rradius
    rradius rwrist
    rwrist rhand rthumb
    rhand rfingers
  end

#!OML:ASF I:\Segmentation\Patient Classification 1\Patient 1\Session 1\Patient1.ASF
:FULLY-SPECIFIED
:DEGREES
2719
root 1.74775 17.8939 1.34639 -234.258 -272.081 -1326.48
lowerback -11.1219 -1.10106 -3.99153
upperback 1.62492 -0.991121 1.01215
thorax 8.07887 -0.691056 3.15296
lowerneck -17.9311 -2.06435 -3.33612
upperneck 20.0672 -2.38054 2.46887
head 9.35928 -1.04049 1.09801
rclavicle 1.14798e-014 -2.38542e-015
rhumerus -38.763 -17.7 -70.3758
rradius 33.1218
rwrist 16.1882
rhand -13.58 28.9955
rfingers 7.12502
rthumb 12.5341 -0.608575
lclavicle 1.14798e-014 -2.38542e-015
lhumerus -34.7839 -6.26615 91.0803
lradius 26.2872
lwrist 15.6959
lhand -12.636 33.9136
lfingers 7.12502
lthumb 13.444 63.4598
rfemur -42.3891 6.12021 16.4714
rtibia 39.725
rfoot 0.430228 2.55375
rtoes -7.55801
lfemur -9.53111 -1.33212 -24.5612
ltibia 37.1891
lfoot -20.2255 -5.32886
ltoes -16.3232
2720
root 1.85674 17.8981 1.37034 -229.849 -272.087 -1322.04
lowerback -11.1145 -1.05691 -3.80399
upperback 1.62747 -0.959076 1.01851
thorax 8.07052 -0.666843 3.05934
lowerneck -17.9859 -2.12094 -3.28464
upperneck 20.1593 -2.44968 2.37493
head 9.40178 -1.07826 1.04778
rclavicle 1.98785e-016 3.18055e-015
rhumerus -38.7509 -17.4942 -70.5672
rradius 33.2087
rwrist 15.774
rhand -13.7112 28.9392
rfingers 7.12502
rthumb 12.4076 -0.672544
lclavicle 1.98785e-016 3.18055e-015
lhumerus -35.1743 -6.54269 91.1276
lradius 26.3408
lwrist 15.746
lhand -12.4643 34.07
lfingers 7.12502
lthumb 13.6095 63.6052
rfemur -41.9412 5.73355 16.9326
rtibia 39.886
rfoot 0.175335 3.14116
rtoes -7.85006
lfemur -9.50364 -0.948486 -24.2415
ltibia 37.6979
lfoot -19.3092 -5.57877
ltoes -16.6711
2721
root 1.9657 17.8964 1.39513 -227.156 -272.082 -1319.31
lowerback -11.1401 -0.977346 -3.64692
upperback 1.64692 -0.873955 1.02323
thorax 8.09592 -0.619127 2.99068
lowerneck -18.0397 -2.20349 -3.35225
upperneck 20.2292 -2.55167 2.41072
head 9.44084 -1.12591 1.05759
rclavicle -1.37161e-014 1.94809e-014
rhumerus -38.6732 -17.4586 -70.6385
rradius 33.2441
rwrist 15.7301
rhand -13.8088 29.5022
rfingers 7.12502
rthumb 12.3135 -0.115223
lclavicle -1.37161e-014 1.94809e-014
lhumerus -35.4268 -6.82188 91.2136
lradius 26.2451
lwrist 15.7277
lhand -12.3105 34.3814
lfingers 7.12502
lthumb 13.7578 63.9066
rfemur -41.4559 5.24302 17.4627
rtibia 40.0414
rfoot 0.014263 3.8631
rtoes -8.77133
lfemur -9.5494 -0.55178 -23.9602
ltibia 38.3371
lfoot -18.4934 -5.29969
ltoes -18.9227
2722
root 2.077 17.9002 1.4213 -226.381 -272.172 -1318.51
lowerback -11.1808 -0.956726 -3.65164
upperback 1.6466 -0.843694 1.01686
thorax 8.11647 -0.604827 2.99188
lowerneck -18.0251 -2.21492 -3.39556
upperneck 20.271 -2.56028 2.43369
head 9.45404 -1.13014 1.07188
rclavicle 4.32357e-015 1.74931e-014
rhumerus -38.5671 -17.3175 -70.7461
rradius 33.3119
rwrist 15.866
rhand -13.7296 29.7644
rfingers 7.12502
rthumb 12.3899 0.151608
lclavicle 4.32357e-015 1.74931e-014
lhumerus -35.5944 -6.89873 91.2543
lradius 26.0217
lwrist 15.7179
lhand -12.2635 34.4501
lfingers 7.12502
lthumb 13.803 63.9721
rfemur -41.0055 4.83509 17.7503
rtibia 40.1842
rfoot -0.17646 4.5581
rtoes -10.0381
lfemur -9.64132 -0.072073 -23.7899
ltibia 39.0646
lfoot -17.5799 -5.04812
ltoes -21.028
2723
root 2.18514 17.9106 1.44554 -223.281 -272.276 -1315.36
lowerback -11.128 -1.01215 -3.65265
upperback 1.60503 -0.925192 1.08588
thorax 8.0493 -0.644268 3.05164
lowerneck -17.8643 -2.1701 -3.42449
upperneck 20.2088 -2.46483 2.31392
head 9.39862 -1.1026 1.0489
rclavicle 1.35174e-014 -2.78299e-015
rhumerus -38.5119 -16.8885 -70.875
rradius 33.4906
rwrist 15.8543
rhand -13.6078 29.446
rfingers 7.12502
rthumb 12.5072 -0.159724
lclavicle 1.35174e-014 -2.78299e-015
lhumerus -35.8366 -6.6457 91.2403
lradius 25.8895
lwrist 15.4834
lhand -12.2192 34.2419
lfingers 7.12502
lthumb 13.8457 63.7611
rfemur -40.5741 4.47262 17.9883
rtibia 40.3103
rfoot -0.469482 5.09279
rtoes -11.1426
lfemur -9.7783 0.36051 -23.5519
ltibia 39.855
lfoot -16.4436 -5.19606
ltoes -20.513
2724
root 2.28869 17.9205 1.4669 -217.672 -272.287 -1309.65
lowerback -10.9756 -0.995529 -3.39821
upperback 1.54683 -0.946127 1.11573
thorax 7.89575 -0.639753 2.93647
lowerneck -17.6174 -2.17124 -3.31964
upperneck 20.1221 -2.47061 2.18467
head 9.32018 -1.11279 0.987626
rclavicle 1.1778e-014 9.93923e-015
rhumerus -38.6095 -16.6483 -71.0012
rradius 33.7026
rwrist 15.7355
rhand -13.5786 29.2596
rfingers 7.12502
rthumb 12.5354 -0.344357
lclavicle 1.1778e-014 9.93923e-015
lhumerus -36.2376 -6.75871 91.2116
lradius 25.9066
lwrist 15.3219
lhand -12.0886 34.0735
lfingers 7.12502
lthumb 13.9717 63.584
rfemur -40.0801 4.16536 18.3627
rtibia 40.4121
rfoot -0.794925 5.45713
rtoes -12.0789
lfemur -9.92039 0.675909 -23.158
ltibia 40.7349
lfoot -15.2777 -5.3491
ltoes -19.6849
2725
root 2.39313 17.9303 1.48971 -213.903 -272.31 -1305.82
lowerback -10.9212 -0.904395 -3.1298
upperback 1.51293 -0.857617 1.04553
thorax 7.81446 -0.580882 2.72575
lowerneck -17.4866 -2.21378 -3.12468
upperneck 20.1376 -2.57527 2.14062
head 9.30125 -1.15105 0.927474
rclavicle 7.45443e-016 -6.75868e-015
rhumerus -38.7239 -16.7516 -71.138
rradius 33.8302
rwrist 15.6867
rhand -13.8482 29.5469
rfingers 7.12502
rthumb 12.2755 -0.0727707
lclavicle 7.45443e-016 -6.75868e-015
lhumerus -36.5827 -7.22641 91.1808
lradius 25.991
lwrist 15.3006
lhand -11.9408 34.2258
lfingers 7.12502
lthumb 14.1141 63.7265
rfemur -39.6356 3.94548 18.6379
rtibia 40.5017
rfoot -1.10125 5.83359
rtoes -12.8272
lfemur -10.1497 0.988691 -22.815
ltibia 41.7415
lfoot -14.0901 -5.26424
ltoes -20.0957
2726
root 2.49748 17.9378 1.51399 -211.363 -272.374 -1303.29
lowerback -11.0002 -0.836924 -3.0252
upperback 1.53209 -0.779531 1.04907
thorax 7.87289 -0.539471 2.68377
lowerneck -17.6125 -2.27237 -3.14371
upperneck 20.28 -2.66426 2.21152
head 9.37786 -1.18397 0.942767
rclavicle 1.1778e-014 7.95139e-016
rhumerus -38.5962 -16.712 -71.2317
rradius 33.8527
rwrist 15.5924
rhand -13.9564 29.7584
rfingers 7.12502
rthumb 12.1711 0.132518
lclavicle 1.1778e-014 7.95139e-016
lhumerus -36.5706 -7.3742 91.1933
lradius 25.8761
lwrist 15.0746
lhand -11.8536 34.4134
lfingers 7.12502
lthumb 14.1981 63.9082
rfemur -39.2763 3.72 18.8427
rtibia 40.5929
rfoot -1.35878 6.27839
rtoes -13.3529
lfemur -10.545 1.29657 -22.5312
ltibia 42.8886
lfoot -12.8115 -5.22599
ltoes -19.5205
2727
root 2.59689 17.9411 1.53647 -208.401 -272.459 -1300.32
lowerback -11.0053 -0.80004 -2.95926
upperback 1.53959 -0.744936 1.12669
thorax 7.88161 -0.521799 2.73522
lowerneck -17.7685 -2.34094 -3.35258
upperneck 20.5014 -2.73293 2.36846
head 9.49167 -1.21146 1.02202
rclavicle 3.926e-015 1.19271e-015
rhumerus -38.4163 -16.4639 -71.2627
rradius 33.9459
rwrist 15.5346
rhand -13.8106 29.7481
rfingers 7.12502
rthumb 12.3117 0.130564
lclavicle 3.926e-015 1.19271e-015
lhumerus -36.4272 -7.3323 91.2461
lradius 25.6091
lwrist 14.8179
lhand -11.6736 34.4039
lfingers 7.12502
lthumb 14.3715 63.8864
rfemur -38.9119 3.53167 19.0395
rtibia 40.6999
rfoot -1.65065 6.62318
rtoes -13.798
lfemur -11.0057 1.58404 -22.2473
ltibia 44.1569
lfoot -11.5776 -5.22119
ltoes -18.1908
